<?xml version="1.0" standalone="no"?>
<!DOCTYPE svg PUBLIC "-//W3C//DTD SVG 20010904//EN"
 "http://www.w3.org/TR/2001/REC-SVG-20010904/DTD/svg10.dtd">
<svg version="1.0" xmlns="http://www.w3.org/2000/svg"
 width="626.000000pt" height="626.000000pt" viewBox="0 0 626.000000 626.000000"
 preserveAspectRatio="xMidYMid meet">

<g transform="translate(0.000000,626.000000) scale(0.100000,-0.100000)"
fill="#000000" stroke="none">
<path d="M2927 5524 c-282 -51 -556 -197 -790 -421 -149 -143 -267 -289 -252
-313 3 -6 1 -9 -6 -8 -18 4 -65 -117 -85 -215 -23 -113 -15 -255 20 -362 39
-117 47 -135 59 -128 12 7 3 -10 -31 -54 -13 -18 -20 -37 -16 -44 4 -7 3 -9
-4 -6 -15 10 -132 -175 -219 -350 -67 -134 -75 -156 -65 -177 15 -33 73 -52
111 -36 31 13 32 14 92 155 72 169 137 284 258 455 82 117 253 329 300 374 17
16 28 34 24 39 -3 6 -1 7 4 4 6 -4 16 0 23 8 10 12 10 28 1 72 -33 168 5 379
101 554 33 59 56 79 42 37 -29 -93 -47 -189 -51 -285 -5 -96 -2 -121 16 -183
16 -52 25 -69 34 -62 151 115 194 147 235 172 46 28 50 34 57 78 10 72 34 160
57 208 11 24 16 48 12 55 -4 8 -3 9 4 5 6 -4 18 6 26 23 16 31 133 180 151
193 25 18 19 1 -37 -108 -32 -64 -57 -123 -54 -130 3 -8 1 -14 -3 -14 -13 0
-31 -91 -31 -152 0 -39 3 -48 13 -40 42 33 245 127 352 162 199 64 393 78 553
40 195 -47 327 -155 464 -380 8 -14 32 -68 52 -120 21 -52 42 -104 47 -115 5
-11 13 -47 18 -80 5 -35 9 -47 10 -28 2 52 -37 253 -64 333 -35 103 -96 231
-107 224 -5 -3 -7 -2 -6 3 4 17 -14 53 -24 47 -6 -4 -8 -3 -5 3 8 13 -27 65
-38 56 -4 -5 -5 -3 -2 3 9 15 -121 166 -135 158 -6 -4 -8 -3 -4 4 7 12 -108
109 -194 164 -85 54 -181 100 -197 94 -8 -3 -12 -2 -9 3 10 16 -136 62 -274
86 -106 19 -327 18 -433 -1z"/>
<path d="M4230 4244 c-14 -10 -31 -24 -37 -32 -17 -20 -18 -86 -1 -76 7 4 8 3
4 -4 -4 -7 20 -47 57 -94 123 -160 218 -323 307 -528 22 -52 45 -104 50 -115
22 -45 98 -264 110 -312 11 -47 15 -53 48 -64 118 -37 257 -130 339 -225 51
-59 143 -193 143 -208 0 -6 -15 5 -33 22 -18 18 -37 29 -41 25 -4 -5 -6 -1 -4
7 2 8 -3 14 -10 12 -8 -1 -11 2 -8 7 9 14 -136 126 -207 160 -62 29 -163 58
-173 48 -3 -2 2 -57 11 -121 8 -64 15 -146 15 -182 0 -35 4 -64 10 -64 5 0 25
-14 44 -31 22 -18 40 -28 48 -23 7 4 10 4 6 -1 -4 -4 17 -36 46 -70 29 -35 68
-89 87 -122 18 -32 36 -60 41 -61 4 -2 6 -7 4 -11 -3 -4 9 -44 25 -90 16 -46
27 -86 24 -89 -6 -7 -4 -9 -49 65 -57 95 -125 185 -137 178 -5 -4 -8 -1 -7 7
2 7 -3 12 -10 10 -6 -1 -11 3 -10 10 3 11 -85 78 -102 78 -5 0 -11 -48 -14
-107 -15 -249 -51 -403 -131 -568 -60 -123 -137 -223 -218 -284 -79 -60 -208
-116 -302 -131 -104 -16 -274 -14 -366 4 -41 9 -86 17 -101 20 -14 2 -36 10
-48 16 -12 6 -24 10 -26 7 -7 -6 82 -43 186 -77 133 -44 290 -64 435 -56 66 3
140 10 165 16 130 28 150 34 150 39 0 4 11 8 24 9 27 2 166 60 213 89 18 11
30 23 25 28 -4 5 -2 5 5 1 16 -9 95 43 86 57 -3 6 -1 7 6 3 15 -9 93 52 85 66
-5 7 -2 8 5 3 35 -21 318 339 295 376 -4 7 -3 9 3 6 13 -8 36 41 27 55 -4 6
-2 8 4 5 13 -9 60 121 93 253 21 86 24 116 23 315 0 199 -3 232 -27 345 -34
164 -88 327 -137 418 -48 89 -89 144 -101 136 -5 -3 -8 0 -7 8 2 7 -3 12 -10
10 -8 -1 -11 1 -8 6 11 19 -127 128 -147 115 -5 -3 -7 -1 -3 5 8 13 -100 66
-116 56 -6 -4 -8 -3 -5 3 8 13 -81 39 -177 52 -37 5 -69 11 -71 13 -1 2 -32
62 -68 133 -82 164 -131 247 -142 237 -5 -4 -5 -1 -1 5 8 15 -105 185 -138
208 -26 19 -26 19 -56 -1z"/>
<path d="M1309 3481 c-87 -66 -201 -180 -193 -193 4 -7 2 -8 -4 -4 -14 8 -105
-119 -160 -224 -52 -98 -107 -261 -128 -380 -13 -74 -15 -131 -11 -255 7 -182
31 -298 94 -445 36 -83 110 -220 119 -220 3 0 2 5 -2 12 -4 7 -3 8 5 4 6 -4 9
-12 5 -17 -13 -22 235 -297 256 -284 5 3 10 -1 13 -9 16 -40 360 -234 394
-222 8 3 12 2 9 -3 -13 -21 308 -112 464 -131 149 -19 322 16 458 92 29 17 49
34 45 40 -3 6 -1 8 4 5 15 -9 105 62 97 75 -4 7 -2 8 4 4 10 -6 112 105 112
122 0 4 150 7 332 7 396 0 393 0 386 77 -4 38 -11 56 -29 70 -26 20 -32 20
-199 -3 -126 -18 -412 -15 -575 5 -175 21 -360 52 -437 71 l-58 16 -67 -52
c-37 -28 -95 -65 -129 -82 -35 -17 -60 -35 -57 -40 3 -6 1 -7 -5 -3 -6 4 -41
-2 -77 -13 -79 -25 -292 -48 -306 -34 -6 6 23 18 78 32 149 39 376 161 357
193 -4 6 -2 8 3 5 10 -6 50 41 41 47 -2 2 -39 18 -83 36 -44 18 -117 50 -163
72 l-83 40 -47 -20 c-86 -37 -170 -53 -277 -53 -99 0 -275 26 -275 41 0 4 57
10 128 14 137 7 185 14 177 26 -3 5 4 6 14 3 11 -3 50 10 87 27 l67 33 -38 23
c-21 12 -43 20 -49 17 -6 -3 -8 -3 -4 2 11 11 -29 38 -44 29 -6 -4 -8 -3 -5 3
3 5 -32 36 -79 69 -157 109 -306 279 -384 439 -94 193 -91 404 8 615 50 105
149 238 252 337 48 47 34 41 -41 -16z"/>
</g>
</svg>
